<svg xmlns="http://www.w3.org/2000/svg" width="46" height="46" viewBox="0 0 46 46">
  <g id="arabic-icon" transform="translate(-1729 -146)">
    <g id="Group_68" data-name="Group 68" transform="translate(5 120)">
      <circle id="Ellipse_6" data-name="Ellipse 6" cx="23" cy="23" r="23" transform="translate(1724 26)" fill="#002a78"/>
      <path id="Path_149" data-name="Path 149" d="M15.469,3.911,11.763,6.357a34.042,34.042,0,0,1-4.717-.249,9.064,9.064,0,0,1-4.453-1.7A5.551,5.551,0,0,1,.615-.176a9.059,9.059,0,0,1,.557-3.267,8.284,8.284,0,0,1,1.3-2.241q.41-.5,1.436-1.509A8.654,8.654,0,0,1,1.963-8.408a3.75,3.75,0,0,1-1.2-2.856,4.628,4.628,0,0,1,1.3-3.047,4.633,4.633,0,0,1,3.618-1.714,4.395,4.395,0,0,1,2.021.557,11.876,11.876,0,0,1,1.8,1.216,23.508,23.508,0,0,0-2.944.19,13.617,13.617,0,0,0-3.149.718q-1.465.571-1.465,1.406,0,.894,1.685,1.7a11.633,11.633,0,0,0,3.223.952,27.6,27.6,0,0,1,2.856-1.348,24.787,24.787,0,0,1,3.223-1.025l-.615,2.285Q9.272-8.188,7.925-7.559A16.6,16.6,0,0,0,3.75-4.922,5.043,5.043,0,0,0,1.89-1.216,3.87,3.87,0,0,0,3.442,2.036a8.924,8.924,0,0,0,3.97,1.45,34.21,34.21,0,0,0,5.3.337q.688,0,1.377-.015l1.377-.029Z" transform="translate(1740 56)" fill="#5bc6f1"/>
    </g>
  </g>
</svg>
