<svg xmlns="http://www.w3.org/2000/svg" width="46" height="46" viewBox="0 0 46 46">
  <g id="english-icon" transform="translate(-1724 -26)">
    <circle id="Ellipse_6" data-name="Ellipse 6" cx="23" cy="23" r="23" transform="translate(1724 26)" fill="#002a78"/>
    <path id="Path_149" data-name="Path 149" d="M1.582,0V-14.316H11.934v1.689H3.477v4.385H11.4v1.68H3.477v4.873h8.789V0ZM14.658,0V-10.371H16.24V-8.9a3.728,3.728,0,0,1,3.3-1.709,4.33,4.33,0,0,1,1.724.337,2.711,2.711,0,0,1,1.177.884,3.392,3.392,0,0,1,.547,1.3,10.065,10.065,0,0,1,.1,1.709V0H21.328V-6.309a4.736,4.736,0,0,0-.205-1.606,1.69,1.69,0,0,0-.728-.85,2.314,2.314,0,0,0-1.226-.317,2.848,2.848,0,0,0-1.938.713,3.517,3.517,0,0,0-.815,2.705V0Z" transform="translate(1735 56)" fill="#5bc6f1"/>
  </g>
</svg>
