<svg width="718" height="37" xmlns="http://www.w3.org/2000/svg" xmlns:xlink="http://www.w3.org/1999/xlink" xml:space="preserve" overflow="hidden"><defs><clipPath id="clip0"><rect x="45" y="386" width="718" height="37"/></clipPath></defs><g clip-path="url(#clip0)" transform="translate(-45 -386)"><path d="M576.382 23.8995 571.633 19.1119 566.845 23.8609 562.058 19.0733 581.17-2.28617e-15 600.282 19.1119 595.533 23.8609 590.784 19.1119 585.996 23.9382 590.745 28.6872 585.996 33.4748 581.131 28.6872 576.421 33.4748 571.633 28.7258 576.421 23.8995 576.382 23.8995ZM581.17 19.1119 585.919 14.3629 581.17 9.61387 576.421 14.3629 581.17 19.1119" fill="#2BACE2" transform="matrix(1 0 0 1.01408 49.6509 386)"/><path d="M502.933 12.5482 496.614 12.5482 497.18 9.93562 503.538 9.93562 502.933 12.5482Z" fill="#29327E" transform="matrix(1 0 0 1.01408 49.6509 386)"/><path d="M490.745 13.3204 494.773 13.3204 494.284 15.6113C494.284 15.6113 490.745 15.4054 490.024 17.6576L486.691 33.0244 480.372 33.0244 483.667 17.8635C483.667 17.8635 484.426 13.3204 490.784 13.3204" fill="#29327E" transform="matrix(1 0 0 1.01408 49.6509 386)"/><path d="M496.099 15.045C496.344 14.0798 497.553 13.359 498.84 13.359L502.779 13.359 498.519 33.0244 492.199 33.0244C492.199 33.0244 496.099 15.045 496.099 15.045Z" fill="#29327E" transform="matrix(1 0 0 1.01408 49.6509 386)"/><path d="M479.394 13.3204 469.214 13.3204C467.927 13.3204 466.717 14.0798 466.472 15.045L462.933 31.2998C462.689 32.265 463.577 33.0244 464.825 33.0244L475.005 33.0244C476.292 33.0244 477.502 32.265 477.746 31.2998L481.286 15.0836C481.53 14.1184 480.642 13.359 479.394 13.359M474.529 17.2586 471.955 29.1248C471.878 29.4465 471.71 29.691 471.517 29.8455 471.324 29.9999 470.99 30.09 470.629 30.09 470.269 30.09 470.024 30.0128 469.87 29.8455 469.754 29.6782 469.703 29.4465 469.793 29.1248L472.367 17.2586C472.444 16.9369 472.611 16.6924 472.856 16.5765 473.1 16.4092 473.384 16.332 473.667 16.332 473.95 16.332 474.272 16.4092 474.426 16.5765 474.593 16.7438 474.593 16.9755 474.503 17.2586" fill="#29327E" transform="matrix(1 0 0 1.01408 49.6509 386)"/><path d="M518.261 13.3204 508.081 13.3204C506.794 13.3204 505.584 14.0798 505.34 15.045L501.8 31.2998C501.556 32.265 502.405 33.0244 503.692 33.0244L513.911 33.0244C515.198 33.0244 516.408 32.265 516.652 31.2998L517.978 25.0707 511.659 25.0707 510.771 29.099C510.694 29.4208 510.526 29.6653 510.333 29.8197 510.14 29.9742 509.806 30.0643 509.445 30.0643 509.085 30.0643 508.84 29.987 508.686 29.8197 508.57 29.6524 508.519 29.4208 508.609 29.099L509.651 24.3114 518.145 24.3114 520.153 15.0579C520.398 14.0926 519.51 13.3333 518.261 13.3333M510.295 21.2741 511.183 17.2458C511.26 16.924 511.427 16.6795 511.672 16.5251 511.916 16.3577 512.199 16.2805 512.483 16.2805 512.766 16.2805 513.087 16.3577 513.242 16.5251 513.409 16.6924 513.409 16.924 513.319 17.2458L512.431 21.2741 510.256 21.2741 510.295 21.2741Z" fill="#29327E" transform="matrix(1 0 0 1.01408 49.6509 386)"/><path d="M537.849 15.045C538.094 14.0798 537.206 13.3204 535.957 13.3204L532.779 13.3204C530.771 13.3204 529.522 14.3243 529.522 14.3243L529.728 13.3204 523.409 13.3204 519.149 32.9858 525.468 32.9858 528.892 17.22C528.969 16.8983 529.175 16.6538 529.419 16.5379 529.664 16.3706 529.947 16.2934 530.269 16.2934 530.591 16.2934 530.874 16.3706 530.99 16.5379 531.157 16.7052 531.157 16.8983 531.105 17.22L527.682 32.9858 534.001 32.9858 537.901 15.045 537.862 15.045Z" fill="#29327E" transform="matrix(1 0 0 1.01408 49.6509 386)"/><path d="M546.742 17.0141 550.603 17.0141 551.414 13.359 547.553 13.359 548.274 9.93562 541.916 9.93562 541.195 13.359 540.23 13.359 539.419 17.0141 540.385 17.0141 537.283 31.2998C537.038 32.265 537.888 33.0244 539.175 33.0244L545.893 33.0244 546.536 30.09 544.928 30.09C544.567 30.09 544.323 30.0128 544.168 29.8455 544.053 29.6782 544.001 29.4465 544.053 29.1248L546.665 17.0527 546.742 17.0141Z" fill="#29327E" transform="matrix(1 0 0 1.01408 49.6509 386)"/><path d="M679.007 17.1814 676.111 29.0862C675.391 31.3384 672.135 31.1325 672.135 31.1325L671.646 33.4233 675.352 33.4233C681.71 33.4233 682.469 28.8802 682.469 28.8802L685.326 17.1686 679.007 17.1686 679.007 17.1686ZM702.585 14.1184 698.08 33.4233 702.147 33.4233C703.28 33.4233 704.4 32.4967 704.644 31.4156L708.711 14.157 702.598 14.157 702.598 14.1184ZM660.346 14.1184 653.833 14.1184 653.344 16.1647 659.857 16.1647 660.346 14.1184ZM638.544 14.1184 632.032 14.1184 631.543 16.1647 638.055 16.1647 638.544 14.1184ZM630.861 14.1184 624.348 14.1184 623.859 16.1647 630.372 16.1647 630.861 14.1184ZM667.18 17.1814 664.76 27.6447C664.76 27.6447 664.232 29.9742 662.186 29.9742L658.647 29.9742C658.647 29.9742 656.639 30.09 657.193 27.4002L659.561 17.22 653.126 17.22 650.706 27.6833C650.706 27.6833 650.178 30.0128 648.132 30.0128L644.426 30.0128C644.426 30.0128 642.456 30.1286 642.971 27.4774L645.339 17.22 638.904 17.22 636.485 27.6833C636.485 27.6833 635.957 30.0128 633.911 30.0128L621.761 30.0128C619.715 30.0128 620.269 27.6833 620.269 27.6833L622.727 16.6151 616.729 16.6151 613.911 28.8416C613.383 31.1711 614.876 33.4619 616.884 33.4619L638.158 33.4619C638.917 33.4619 639.651 33.1402 640.333 32.6511 640.693 33.1402 641.26 33.4619 642.225 33.4619L652.405 33.4619C653.126 33.4619 653.859 33.1788 654.503 32.7026 654.863 33.1402 655.429 33.4619 656.317 33.4619L666.498 33.4619C668.184 33.4619 670.204 32.0076 670.848 29.5237L673.666 17.22 667.193 17.22 667.154 17.1814ZM662.714 36.4864 669.226 36.4864 669.715 34.4401 663.203 34.4401 662.714 36.4864 662.714 36.4864ZM655.03 36.4864 661.543 36.4864 662.032 34.4401 655.519 34.4401 655.03 36.4864ZM697.759 17.1814 689.869 17.1814C688.737 17.1814 687.617 18.2239 687.295 19.5109 687.295 19.5109 686.253 24.054 686.008 25.0578 685.725 26.3062 686.008 27.5546 687.579 27.5546L692.405 27.5546 692.044 29.0862C691.877 29.8069 690.963 31.1325 688.068 31.1325L683.808 31.1325 683.28 33.4233 692.817 33.4233C694.631 33.4233 696.279 32.2908 696.922 29.5623L699.252 19.4594C699.535 18.1724 698.891 17.1299 697.759 17.1299M693.846 21.4028 693.164 24.3757 691.156 24.3757 691.839 21.4028C692.006 20.7593 692.559 20.2316 693.126 20.2316 693.692 20.2316 694.014 20.7593 693.885 21.4028" fill="#29327E" transform="matrix(1 0 0 1.01408 49.6509 386)"/><path d="M0.669239 7.81208C0.669239 7.25867 0.810809 6.74387 1.10682 6.29342 1.40283 5.84297 1.82754 5.46974 2.41956 5.19947 3.01157 4.9292 3.73229 4.78763 4.58171 4.78763 5.43113 4.78763 6.15185 4.9292 6.731 5.19947 7.31015 5.46974 7.74773 5.84297 8.03087 6.29342 8.31401 6.75674 8.46845 7.25867 8.46845 7.81208 8.46845 8.36549 8.33975 8.85454 8.06948 9.26638 7.79921 9.67822 7.45172 9.99997 7.01414 10.2445 7.56755 10.5148 7.99226 10.8751 8.30114 11.3513 8.59715 11.8146 8.75159 12.368 8.75159 12.9987 8.75159 13.7323 8.57141 14.3629 8.19818 14.8906 7.82495 15.4182 7.32302 15.8301 6.69239 16.1003 6.06176 16.3835 5.35391 16.5122 4.58171 16.5122 3.80951 16.5122 3.10166 16.3706 2.47104 16.1003 1.84041 15.8172 1.33848 15.4182 0.965248 14.8906 0.592019 14.3629 0.411839 13.7323 0.411839 12.9987 0.411839 12.3552 0.566279 11.8018 0.862289 11.3385 1.1583 10.8751 1.58301 10.5019 2.12355 10.2445 1.1583 9.7297 0.669239 8.91889 0.669239 7.82495ZM3.39767 11.776C3.10166 12.0334 2.94722 12.4067 2.94722 12.87 2.94722 13.3076 3.08879 13.655 3.3848 13.9382 3.68081 14.2213 4.06691 14.35 4.56884 14.35 5.07077 14.35 5.45687 14.2085 5.74001 13.9382 6.02315 13.6679 6.16472 13.3076 6.16472 12.87 6.16472 12.4324 6.02315 12.0592 5.72714 11.7889 5.43113 11.5186 5.04503 11.3899 4.58171 11.3899 4.11839 11.3899 3.70655 11.5186 3.41054 11.7889ZM5.53409 7.23293C5.28956 7.00127 4.96781 6.88544 4.56884 6.88544 4.16987 6.88544 3.84812 7.00127 3.60359 7.2458 3.35906 7.47746 3.24323 7.81208 3.24323 8.23679 3.24323 8.6615 3.37193 8.9575 3.61646 9.18916 3.86099 9.42082 4.18274 9.53665 4.56884 9.53665 4.95494 9.53665 5.27669 9.42082 5.52122 9.17629 5.76575 8.94463 5.89445 8.62288 5.89445 8.22392 5.89445 7.79921 5.77862 7.47746 5.53409 7.2458Z" fill="#2BACE2" transform="matrix(1 0 0 1.01408 49.6509 386)"/><path d="M11.2998 6.31916C11.9819 5.30243 13.0888 4.78763 14.6074 4.78763 16.1261 4.78763 17.2329 5.30243 17.915 6.31916 18.5971 7.33589 18.9446 8.73872 18.9446 10.5019 18.9446 12.2651 18.5971 13.6937 17.915 14.7233 17.2329 15.74 16.1261 16.2548 14.6074 16.2548 13.0888 16.2548 11.9819 15.74 11.2998 14.7233 10.6177 13.7065 10.2702 12.3037 10.2702 10.5019 10.2702 8.70011 10.6177 7.33589 11.2998 6.31916ZM16.0103 8.09522C15.7786 7.52894 15.3153 7.25867 14.6074 7.25867 13.8996 7.25867 13.4234 7.54181 13.2046 8.09522 12.9729 8.6615 12.87 9.45943 12.87 10.5019 12.87 11.1969 12.9086 11.776 12.9987 12.2393 13.0888 12.7027 13.2432 13.063 13.5006 13.3462 13.758 13.6293 14.1312 13.7709 14.6203 13.7709 15.1094 13.7709 15.4826 13.6293 15.74 13.3462 15.9974 13.063 16.1647 12.6898 16.2419 12.2393 16.3191 11.7889 16.3706 11.1969 16.3706 10.5019 16.3706 9.45943 16.2548 8.6615 16.036 8.09522Z" fill="#2BACE2" transform="matrix(1 0 0 1.01408 49.6509 386)"/><path d="M21.3642 6.31916C22.0463 5.30243 23.1531 4.78763 24.6717 4.78763 26.1904 4.78763 27.2972 5.30243 27.9793 6.31916 28.6614 7.33589 29.0089 8.73872 29.0089 10.5019 29.0089 12.2651 28.6614 13.6937 27.9793 14.7233 27.2972 15.74 26.1904 16.2548 24.6717 16.2548 23.1531 16.2548 22.0463 15.74 21.3642 14.7233 20.6821 13.7065 20.3346 12.3037 20.3346 10.5019 20.3346 8.70011 20.6821 7.33589 21.3642 6.31916ZM26.0874 8.09522C25.8558 7.52894 25.3925 7.25867 24.6846 7.25867 23.9768 7.25867 23.5006 7.54181 23.2818 8.09522 23.0501 8.6615 22.9472 9.45943 22.9472 10.5019 22.9472 11.1969 22.9858 11.776 23.0759 12.2393 23.166 12.7027 23.3204 13.063 23.5778 13.3462 23.8352 13.6293 24.2084 13.7709 24.6975 13.7709 25.1865 13.7709 25.5598 13.6293 25.8172 13.3462 26.0746 13.063 26.2419 12.6898 26.3191 12.2393 26.3963 11.7889 26.4478 11.1969 26.4478 10.5019 26.4478 9.45943 26.332 8.6615 26.1132 8.09522Z" fill="#2BACE2" transform="matrix(1 0 0 1.01408 49.6509 386)"/><path d="M33.4105 7.47746 33.4105 5.01929 37.6833 5.01929 37.6833 16.2934 34.9291 16.2934 34.9291 7.47746 33.3976 7.47746Z" fill="#2BACE2" transform="matrix(1 0 0 1.01408 49.6509 386)"/><path d="M39.2148 7.47746 39.2148 5.01929 43.4877 5.01929 43.4877 16.2934 40.7335 16.2934 40.7335 7.47746 39.202 7.47746Z" fill="#2BACE2" transform="matrix(1 0 0 1.01408 49.6509 386)"/><path d="M45.0192 7.47746 45.0192 5.01929 49.292 5.01929 49.292 16.2934 46.5378 16.2934 46.5378 7.47746 45.0063 7.47746Z" fill="#2BACE2" transform="matrix(1 0 0 1.01408 49.6509 386)"/><path d="M55.4053 6.31916C56.0874 5.30243 57.1942 4.78763 58.7128 4.78763 60.2315 4.78763 61.3383 5.30243 62.0204 6.31916 62.7025 7.33589 63.05 8.73872 63.05 10.5019 63.05 12.2651 62.7025 13.6937 62.0204 14.7233 61.3383 15.74 60.2315 16.2548 58.7128 16.2548 57.1942 16.2548 56.0874 15.74 55.4053 14.7233 54.7231 13.7065 54.3757 12.3037 54.3757 10.5019 54.3757 8.70011 54.7231 7.33589 55.4053 6.31916ZM60.1285 8.09522C59.8969 7.52894 59.4336 7.25867 58.7257 7.25867 58.0179 7.25867 57.5417 7.54181 57.3229 8.09522 57.0912 8.6615 56.9883 9.45943 56.9883 10.5019 56.9883 11.1969 57.0269 11.776 57.117 12.2393 57.2071 12.7027 57.3615 13.063 57.6189 13.3462 57.8763 13.6293 58.2495 13.7709 58.7386 13.7709 59.2276 13.7709 59.6009 13.6293 59.8583 13.3462 60.1157 13.063 60.283 12.6898 60.3602 12.2393 60.4374 11.7889 60.4889 11.1969 60.4889 10.5019 60.4889 9.45943 60.3731 8.6615 60.1543 8.09522Z" fill="#2BACE2" transform="matrix(1 0 0 1.01408 49.6509 386)"/><path d="M64.1697 7.47746 64.1697 5.01929 68.4425 5.01929 68.4425 16.2934 65.6884 16.2934 65.6884 7.47746 64.1568 7.47746Z" fill="#2BACE2" transform="matrix(1 0 0 1.01408 49.6509 386)"/><path d="M78.198 7.32302 73.3846 7.32302 73.3846 9.45943C73.5905 9.22777 73.8737 9.0476 74.2469 8.90602 74.6201 8.76445 75.0191 8.68723 75.4567 8.68723 76.2289 8.68723 76.8724 8.86741 77.3743 9.2149 77.8762 9.56239 78.2623 10.0128 78.494 10.5791 78.7257 11.1325 78.8544 11.7374 78.8544 12.3809 78.8544 13.5907 78.5197 14.5431 77.8376 15.2509 77.1555 15.9588 76.2031 16.3063 74.9676 16.3063 74.1439 16.3063 73.4232 16.1647 72.8183 15.8816 72.2134 15.5984 71.7373 15.1994 71.4155 14.6975 71.0809 14.1956 70.9007 13.6164 70.875 12.9472L73.449 12.9472C73.5133 13.2689 73.6549 13.5263 73.8994 13.7451 74.1439 13.9639 74.4657 14.0669 74.8775 14.0669 75.3666 14.0669 75.727 13.9124 75.9586 13.6036 76.1903 13.2947 76.319 12.8828 76.319 12.368 76.319 11.8532 76.1903 11.48 75.9457 11.2098 75.7012 10.9395 75.3409 10.8108 74.8647 10.8108 74.5172 10.8108 74.2212 10.9009 74.0024 11.0682 73.7707 11.2355 73.6291 11.4671 73.5519 11.7374L71.0037 11.7374 71.0037 5.00642 78.2109 5.00642 78.2109 7.32302Z" fill="#2BACE2" transform="matrix(1 0 0 1.01408 49.6509 386)"/><path d="M80.0126 7.47746 80.0126 5.01929 84.2855 5.01929 84.2855 16.2934 81.5313 16.2934 81.5313 7.47746 79.9998 7.47746Z" fill="#2BACE2" transform="matrix(1 0 0 1.01408 49.6509 386)"/><path d="M2.17503 34.4015C1.50579 34.0411 0.965248 33.5263 0.579149 32.8571 0.19305 32.1878 -7.14428e-17 31.4027 -7.14428e-17 30.5147 -7.14428e-17 29.6267 0.19305 28.8545 0.592019 28.1724 0.978118 27.5031 1.51866 26.9755 2.20077 26.6151 2.88287 26.2548 3.6422 26.0746 4.49162 26.0746 5.34104 26.0746 6.10037 26.2548 6.78248 26.6151 7.46459 26.9755 7.99226 27.4903 8.39123 28.1724 8.79019 28.8545 8.98324 29.6267 8.98324 30.5147 8.98324 31.4027 8.79019 32.1749 8.39123 32.8571 7.99226 33.5392 7.45172 34.054 6.76961 34.4143 6.0875 34.7747 5.3153 34.9549 4.47875 34.9549 3.6422 34.9549 2.87001 34.7747 2.20077 34.4143ZM5.74001 32.1106C6.10037 31.7374 6.26768 31.2097 6.26768 30.5147 6.26768 29.8197 6.10037 29.2921 5.75288 28.9188 5.40539 28.5456 4.98068 28.3654 4.47875 28.3654 3.97682 28.3654 3.53924 28.5456 3.19175 28.9188 2.85714 29.2792 2.67696 29.8197 2.67696 30.5147 2.67696 31.2097 2.84427 31.7374 3.17888 32.1106 3.5135 32.4838 3.93821 32.664 4.44014 32.664 4.94207 32.664 5.37965 32.4838 5.72714 32.1106Z" fill="#29327E" transform="matrix(1 0 0 1.01408 49.6509 386)"/><path d="M14.157 26.525C14.6203 26.2548 15.1351 26.1132 15.7014 26.1132L15.7014 28.906 14.9807 28.906C14.3243 28.906 13.8224 29.0475 13.5006 29.3307 13.166 29.6138 13.0115 30.1157 13.0115 30.8236L13.0115 34.8262 10.3732 34.8262 10.3732 26.2033 13.0115 26.2033 13.0115 27.6447C13.3204 27.1685 13.7065 26.7953 14.1698 26.525Z" fill="#29327E" transform="matrix(1 0 0 1.01408 49.6509 386)"/><path d="M17.1686 24.9034C16.8725 24.6331 16.731 24.2985 16.731 23.8867 16.731 23.4748 16.8725 23.1273 17.1686 22.8571 17.4646 22.5868 17.8378 22.4452 18.3011 22.4452 18.7644 22.4452 19.1248 22.5868 19.4208 22.8571 19.7168 23.1273 19.8584 23.4748 19.8584 23.8867 19.8584 24.2985 19.7168 24.6203 19.4208 24.9034 19.1248 25.1865 18.7516 25.3152 18.3011 25.3152 17.8507 25.3152 17.4646 25.1737 17.1686 24.9034ZM19.6138 26.2033 19.6138 34.8262 16.9755 34.8262 16.9755 26.2033 19.6138 26.2033Z" fill="#29327E" transform="matrix(1 0 0 1.01408 49.6509 386)"/><path d="M29.6009 31.1453 23.6293 31.1453C23.6679 31.6859 23.8481 32.0849 24.1441 32.368 24.4401 32.6511 24.8262 32.7927 25.2638 32.7927 25.9201 32.7927 26.3835 32.5096 26.6409 31.9562L29.4465 31.9562C29.3049 32.5224 29.0475 33.0372 28.6614 33.4877 28.2882 33.9381 27.812 34.2985 27.2457 34.5559 26.6795 34.8133 26.0488 34.942 25.341 34.942 24.4916 34.942 23.7451 34.7618 23.0887 34.4015 22.4324 34.0411 21.9176 33.5263 21.5443 32.8571 21.1711 32.1878 20.9909 31.4027 20.9909 30.5147 20.9909 29.6267 21.1711 28.8416 21.5443 28.1724 21.9047 27.5031 22.4195 26.9883 23.0759 26.628 23.7322 26.2676 24.4916 26.0874 25.341 26.0874 26.1904 26.0874 26.9111 26.2676 27.5675 26.6151 28.211 26.9626 28.7258 27.4645 29.0862 28.108 29.4465 28.7515 29.6396 29.5109 29.6396 30.3731 29.6396 30.6177 29.6267 30.8751 29.5881 31.1453ZM26.9497 29.6782C26.9497 29.2277 26.7953 28.8674 26.4864 28.5971 26.1775 28.3268 25.7914 28.1981 25.3281 28.1981 24.8648 28.1981 24.5173 28.3268 24.2084 28.5842 23.8995 28.8416 23.7194 29.202 23.6422 29.6782L26.9497 29.6782Z" fill="#29327E" transform="matrix(1 0 0 1.01408 49.6509 386)"/><path d="M38.7129 27.0913C39.3178 27.7477 39.6138 28.6486 39.6138 29.7811L39.6138 34.8133 36.9883 34.8133 36.9883 30.1286C36.9883 29.5495 36.8339 29.099 36.5379 28.7901 36.2419 28.4684 35.8429 28.314 35.3281 28.314 34.8133 28.314 34.4272 28.4684 34.1183 28.7901 33.8223 29.1119 33.6679 29.5623 33.6679 30.1286L33.6679 34.8133 31.0295 34.8133 31.0295 26.1904 33.6679 26.1904 33.6679 27.3358C33.9381 26.9497 34.2985 26.6537 34.7489 26.4349 35.1994 26.2161 35.7142 26.1003 36.2805 26.1003 37.2843 26.1003 38.0951 26.4221 38.7 27.0784Z" fill="#29327E" transform="matrix(1 0 0 1.01408 49.6509 386)"/><path d="M46.2547 32.5868 46.2547 34.8262 44.9162 34.8262C43.9638 34.8262 43.2174 34.5945 42.6768 34.1183 42.1363 33.6421 41.8789 32.8828 41.8789 31.8275L41.8789 28.404 40.8236 28.404 40.8236 26.2161 41.8789 26.2161 41.8789 24.1183 44.5173 24.1183 44.5173 26.2161 46.2418 26.2161 46.2418 28.404 44.5173 28.404 44.5173 31.8661C44.5173 32.1235 44.5816 32.3036 44.6974 32.4195 44.8261 32.5353 45.0321 32.5868 45.3152 32.5868L46.2547 32.5868Z" fill="#29327E" transform="matrix(1 0 0 1.01408 49.6509 386)"/><path d="M47.9149 24.9034C47.6189 24.6331 47.4773 24.2985 47.4773 23.8867 47.4773 23.4748 47.6189 23.1273 47.9149 22.8571 48.2109 22.5868 48.5842 22.4452 49.0475 22.4452 49.5108 22.4452 49.8712 22.5868 50.1672 22.8571 50.4632 23.1273 50.6048 23.4748 50.6048 23.8867 50.6048 24.2985 50.4632 24.6203 50.1672 24.9034 49.8712 25.1865 49.4979 25.3152 49.0475 25.3152 48.597 25.3152 48.2109 25.1737 47.9149 24.9034ZM50.3602 26.2033 50.3602 34.8262 47.7219 34.8262 47.7219 26.2033 50.3602 26.2033Z" fill="#29327E" transform="matrix(1 0 0 1.01408 49.6509 386)"/><path d="M59.9484 27.0913C60.5532 27.7477 60.8493 28.6486 60.8493 29.7811L60.8493 34.8133 58.2238 34.8133 58.2238 30.1286C58.2238 29.5495 58.0693 29.099 57.7733 28.7901 57.4773 28.4684 57.0784 28.314 56.5636 28.314 56.0488 28.314 55.6627 28.4684 55.3538 28.7901 55.0578 29.1119 54.9033 29.5623 54.9033 30.1286L54.9033 34.8133 52.265 34.8133 52.265 26.1904 54.9033 26.1904 54.9033 27.3358C55.1736 26.9497 55.534 26.6537 55.9844 26.4349 56.4349 26.2161 56.9497 26.1003 57.5159 26.1003 58.5198 26.1003 59.3306 26.4221 59.9355 27.0784Z" fill="#29327E" transform="matrix(1 0 0 1.01408 49.6509 386)"/><path d="M64.1826 34.5559C63.5906 34.2985 63.1272 33.951 62.7926 33.5006 62.458 33.0501 62.265 32.5482 62.2263 31.9948L64.839 31.9948C64.8647 32.2908 65.0063 32.5353 65.2508 32.7155 65.4953 32.8957 65.8042 32.9986 66.1646 32.9986 66.4992 32.9986 66.7437 32.9343 66.9239 32.8056 67.1041 32.6769 67.1942 32.5096 67.1942 32.3036 67.1942 32.0591 67.0655 31.8789 66.8081 31.7502 66.5507 31.6344 66.1388 31.5057 65.5597 31.3513 64.9419 31.2097 64.4271 31.0553 64.0153 30.9008 63.6034 30.7464 63.2431 30.489 62.9471 30.1415 62.6511 29.794 62.4966 29.3307 62.4966 28.7387 62.4966 28.2496 62.6382 27.7992 62.9085 27.3873 63.1787 26.9755 63.5777 26.6537 64.1182 26.4221 64.6459 26.1904 65.2765 26.0617 66.0101 26.0617 67.0912 26.0617 67.9406 26.332 68.5712 26.8596 69.189 27.4002 69.5494 28.108 69.6395 28.9961L67.1942 28.9961C67.1555 28.7001 67.0268 28.4555 66.7952 28.2882 66.5764 28.108 66.2804 28.0308 65.92 28.0308 65.6111 28.0308 65.3795 28.0952 65.2122 28.211 65.0449 28.3268 64.9677 28.4941 64.9677 28.7001 64.9677 28.9446 65.0964 29.1376 65.3666 29.2535 65.624 29.3822 66.0359 29.498 66.5893 29.6267 67.2328 29.794 67.7476 29.9484 68.1465 30.1157 68.5455 30.2831 68.9059 30.5276 69.2019 30.8879 69.5107 31.2483 69.6652 31.7245 69.6781 32.3165 69.6781 32.8184 69.5365 33.2689 69.2534 33.6679 68.9702 34.0668 68.5584 34.3757 68.0307 34.6074 67.503 34.839 66.8853 34.942 66.1903 34.942 65.4438 34.942 64.7746 34.8133 64.1826 34.5559Z" fill="#29327E" transform="matrix(1 0 0 1.01408 49.6509 386)"/><path d="M79.8196 26.2033 79.8196 34.8262 77.1813 34.8262 77.1813 33.655C76.911 34.0411 76.5506 34.3371 76.0873 34.5688 75.624 34.8004 75.1221 34.9162 74.5686 34.9162 73.9123 34.9162 73.3331 34.7747 72.8183 34.4787 72.3035 34.1827 71.9174 33.7579 71.6472 33.2045 71.364 32.6511 71.2353 31.9948 71.2353 31.2483L71.2353 26.2161 73.8608 26.2161 73.8608 30.9008C73.8608 31.48 74.0152 31.9304 74.3113 32.2393 74.6073 32.561 75.0062 32.7155 75.521 32.7155 76.0358 32.7155 76.4477 32.561 76.7437 32.2393 77.0397 31.9175 77.1941 31.4671 77.1941 30.9008L77.1941 26.2161 79.8325 26.2161Z" fill="#29327E" transform="matrix(1 0 0 1.01408 49.6509 386)"/><path d="M85.5081 26.525C85.9715 26.2548 86.4862 26.1132 87.0525 26.1132L87.0525 28.906 86.3318 28.906C85.6754 28.906 85.1735 29.0475 84.8518 29.3307 84.5171 29.6138 84.3627 30.1157 84.3627 30.8236L84.3627 34.8262 81.7244 34.8262 81.7244 26.2033 84.3627 26.2033 84.3627 27.6447C84.6716 27.1685 85.0577 26.7953 85.521 26.525Z" fill="#29327E" transform="matrix(1 0 0 1.01408 49.6509 386)"/><path d="M88.3009 28.1724C88.6355 27.5031 89.086 26.9883 89.6651 26.628 90.2443 26.2676 90.8878 26.0874 91.5956 26.0874 92.2005 26.0874 92.7411 26.2161 93.1915 26.4607 93.642 26.7052 94.0023 27.027 94.2468 27.4388L94.2468 26.2161 96.8852 26.2161 96.8852 34.839 94.2468 34.839 94.2468 33.6164C93.9894 34.0154 93.6291 34.3371 93.1786 34.5945 92.7282 34.8519 92.1876 34.9677 91.5828 34.9677 90.8878 34.9677 90.2443 34.7876 89.6651 34.4143 89.086 34.054 88.6355 33.5263 88.3009 32.8571 87.9663 32.1878 87.799 31.4027 87.799 30.5147 87.799 29.6267 87.9663 28.8545 88.3009 28.1853ZM93.7063 28.9575C93.3459 28.5714 92.8955 28.3912 92.3678 28.3912 91.8402 28.3912 91.4026 28.5842 91.0294 28.9575 90.669 29.3307 90.476 29.8455 90.476 30.5147 90.476 31.184 90.6561 31.6988 91.0294 32.0849 91.3897 32.471 91.8402 32.664 92.3678 32.664 92.8955 32.664 93.3331 32.471 93.7063 32.0977 94.0667 31.7116 94.2597 31.1968 94.2597 30.5405 94.2597 29.8841 94.0795 29.3564 93.7063 28.9832Z" fill="#29327E" transform="matrix(1 0 0 1.01408 49.6509 386)"/><path d="M106.473 27.0913C107.078 27.7477 107.374 28.6486 107.374 29.7811L107.374 34.8133 104.749 34.8133 104.749 30.1286C104.749 29.5495 104.594 29.099 104.298 28.7901 104.002 28.4684 103.603 28.314 103.089 28.314 102.574 28.314 102.188 28.4684 101.879 28.7901 101.583 29.1119 101.428 29.5623 101.428 30.1286L101.428 34.8133 98.79 34.8133 98.79 26.1904 101.428 26.1904 101.428 27.3358C101.699 26.9497 102.059 26.6537 102.509 26.4349 102.96 26.2161 103.475 26.1003 104.041 26.1003 105.045 26.1003 105.856 26.4221 106.46 27.0784Z" fill="#29327E" transform="matrix(1 0 0 1.01408 49.6509 386)"/><path d="M109.24 28.1724C109.601 27.5031 110.116 26.9883 110.772 26.628 111.428 26.2676 112.175 26.0874 113.024 26.0874 114.105 26.0874 115.006 26.3706 115.74 26.9369 116.46 27.5031 116.937 28.3011 117.168 29.3307L114.363 29.3307C114.131 28.6743 113.668 28.3397 112.986 28.3397 112.496 28.3397 112.11 28.5327 111.827 28.906 111.544 29.2792 111.39 29.8197 111.39 30.5147 111.39 31.2097 111.531 31.7502 111.827 32.1235 112.11 32.4967 112.496 32.6897 112.986 32.6897 113.668 32.6897 114.118 32.3551 114.363 31.6988L117.168 31.6988C116.937 32.7026 116.46 33.5006 115.727 34.0797 114.993 34.6589 114.092 34.942 113.024 34.942 112.175 34.942 111.428 34.7618 110.772 34.4015 110.116 34.0411 109.614 33.5263 109.24 32.8571 108.88 32.1878 108.687 31.4027 108.687 30.5147 108.687 29.6267 108.867 28.8416 109.24 28.1724Z" fill="#29327E" transform="matrix(1 0 0 1.01408 49.6509 386)"/><path d="M126.641 31.1453 120.669 31.1453C120.708 31.6859 120.888 32.0849 121.184 32.368 121.48 32.6511 121.866 32.7927 122.303 32.7927 122.96 32.7927 123.423 32.5096 123.68 31.9562L126.486 31.9562C126.345 32.5224 126.087 33.0372 125.701 33.4877 125.328 33.9381 124.852 34.2985 124.285 34.5559 123.719 34.8133 123.088 34.942 122.381 34.942 121.531 34.942 120.785 34.7618 120.128 34.4015 119.472 34.0411 118.957 33.5263 118.584 32.8571 118.211 32.1878 118.031 31.4027 118.031 30.5147 118.031 29.6267 118.211 28.8416 118.584 28.1724 118.944 27.5031 119.459 26.9883 120.116 26.628 120.772 26.2676 121.531 26.0874 122.381 26.0874 123.23 26.0874 123.951 26.2676 124.607 26.6151 125.251 26.9626 125.765 27.4645 126.126 28.108 126.486 28.7515 126.679 29.5109 126.679 30.3731 126.679 30.6177 126.666 30.8751 126.628 31.1453ZM123.989 29.6782C123.989 29.2277 123.835 28.8674 123.526 28.5971 123.217 28.3268 122.831 28.1981 122.368 28.1981 121.904 28.1981 121.557 28.3268 121.248 28.5842 120.939 28.8416 120.759 29.202 120.682 29.6782L123.989 29.6782Z" fill="#29327E" transform="matrix(1 0 0 1.01408 49.6509 386)"/><path d="M128.172 34.543C127.876 34.2728 127.735 33.9381 127.735 33.5263 127.735 33.1145 127.876 32.767 128.172 32.4967 128.468 32.2136 128.841 32.0849 129.305 32.0849 129.768 32.0849 130.128 32.2264 130.424 32.4967 130.72 32.7798 130.862 33.1145 130.862 33.5263 130.862 33.9381 130.72 34.2599 130.424 34.543 130.128 34.8133 129.755 34.9549 129.305 34.9549 128.854 34.9549 128.468 34.8133 128.172 34.543Z" fill="#29327E" transform="matrix(1 0 0 1.01408 49.6509 386)"/><path d="M132.458 28.1724C132.818 27.5031 133.333 26.9883 133.989 26.628 134.646 26.2676 135.392 26.0874 136.242 26.0874 137.323 26.0874 138.224 26.3706 138.957 26.9369 139.678 27.5031 140.154 28.3011 140.386 29.3307L137.58 29.3307C137.348 28.6743 136.885 28.3397 136.203 28.3397 135.714 28.3397 135.328 28.5327 135.045 28.906 134.762 29.2792 134.607 29.8197 134.607 30.5147 134.607 31.2097 134.749 31.7502 135.045 32.1235 135.328 32.4967 135.714 32.6897 136.203 32.6897 136.885 32.6897 137.336 32.3551 137.58 31.6988L140.386 31.6988C140.154 32.7026 139.678 33.5006 138.944 34.0797 138.211 34.6589 137.31 34.942 136.242 34.942 135.392 34.942 134.646 34.7618 133.989 34.4015 133.333 34.0411 132.831 33.5263 132.458 32.8571 132.097 32.1878 131.904 31.4027 131.904 30.5147 131.904 29.6267 132.085 28.8416 132.458 28.1724Z" fill="#29327E" transform="matrix(1 0 0 1.01408 49.6509 386)"/><path d="M143.423 34.4015C142.754 34.0411 142.213 33.5263 141.827 32.8571 141.441 32.1878 141.248 31.4027 141.248 30.5147 141.248 29.6267 141.441 28.8545 141.84 28.1724 142.226 27.5031 142.767 26.9755 143.449 26.6151 144.131 26.2548 144.89 26.0746 145.74 26.0746 146.589 26.0746 147.348 26.2548 148.03 26.6151 148.713 26.9755 149.24 27.4903 149.639 28.1724 150.038 28.8545 150.231 29.6267 150.231 30.5147 150.231 31.4027 150.038 32.1749 149.639 32.8571 149.24 33.5392 148.7 34.054 148.018 34.4143 147.336 34.7747 146.563 34.9549 145.727 34.9549 144.89 34.9549 144.118 34.7747 143.449 34.4143ZM146.988 32.1106C147.348 31.7374 147.516 31.2097 147.516 30.5147 147.516 29.8197 147.348 29.2921 147.001 28.9188 146.653 28.5456 146.229 28.3654 145.727 28.3654 145.225 28.3654 144.787 28.5456 144.44 28.9188 144.105 29.2792 143.925 29.8197 143.925 30.5147 143.925 31.2097 144.092 31.7374 144.427 32.1106 144.762 32.4838 145.186 32.664 145.688 32.664 146.19 32.664 146.628 32.4838 146.975 32.1106Z" fill="#29327E" transform="matrix(1 0 0 1.01408 49.6509 386)"/><path d="M165.16 27.0913C165.791 27.7348 166.113 28.6357 166.113 29.794L166.113 34.8262 163.487 34.8262 163.487 30.1415C163.487 29.5881 163.346 29.1505 163.05 28.8545 162.754 28.5456 162.355 28.404 161.84 28.404 161.325 28.404 160.926 28.5585 160.63 28.8545 160.334 29.1634 160.193 29.5881 160.193 30.1415L160.193 34.8262 157.567 34.8262 157.567 30.1415C157.567 29.5881 157.426 29.1505 157.13 28.8545 156.834 28.5456 156.435 28.404 155.92 28.404 155.405 28.404 155.006 28.5585 154.71 28.8545 154.414 29.1634 154.272 29.5881 154.272 30.1415L154.272 34.8262 151.634 34.8262 151.634 26.2033 154.272 26.2033 154.272 27.2844C154.543 26.924 154.89 26.6409 155.328 26.4221 155.765 26.2161 156.254 26.1003 156.795 26.1003 157.438 26.1003 158.018 26.2419 158.532 26.5122 159.047 26.7953 159.446 27.1814 159.729 27.6962 160.025 27.22 160.437 26.8339 160.952 26.5379 161.467 26.2419 162.033 26.0874 162.638 26.0874 163.706 26.0874 164.556 26.4092 165.199 27.0656Z" fill="#29327E" transform="matrix(1 0 0 1.01408 49.6509 386)"/><path d="M168.069 34.543C167.773 34.2728 167.631 33.9381 167.631 33.5263 167.631 33.1145 167.773 32.767 168.069 32.4967 168.365 32.2136 168.738 32.0849 169.202 32.0849 169.665 32.0849 170.025 32.2264 170.321 32.4967 170.617 32.7798 170.759 33.1145 170.759 33.5263 170.759 33.9381 170.617 34.2599 170.321 34.543 170.025 34.8133 169.652 34.9549 169.202 34.9549 168.751 34.9549 168.365 34.8133 168.069 34.543Z" fill="#29327E" transform="matrix(1 0 0 1.01408 49.6509 386)"/><path d="M173.822 34.5559C173.23 34.2985 172.767 33.951 172.432 33.5006 172.097 33.0501 171.904 32.5482 171.866 31.9948L174.478 31.9948C174.504 32.2908 174.646 32.5353 174.89 32.7155 175.135 32.8957 175.444 32.9986 175.804 32.9986 176.139 32.9986 176.383 32.9343 176.563 32.8056 176.743 32.6769 176.833 32.5096 176.833 32.3036 176.833 32.0591 176.705 31.8789 176.447 31.7502 176.19 31.6344 175.778 31.5057 175.199 31.3513 174.581 31.2097 174.066 31.0553 173.655 30.9008 173.243 30.7464 172.882 30.489 172.586 30.1415 172.29 29.794 172.136 29.3307 172.136 28.7387 172.136 28.2496 172.278 27.7992 172.548 27.3873 172.818 26.9755 173.217 26.6537 173.758 26.4221 174.285 26.1904 174.916 26.0617 175.649 26.0617 176.731 26.0617 177.58 26.332 178.211 26.8596 178.828 27.4002 179.189 28.108 179.279 28.9961L176.833 28.9961C176.795 28.7001 176.666 28.4555 176.435 28.2882 176.216 28.108 175.92 28.0308 175.559 28.0308 175.25 28.0308 175.019 28.0952 174.852 28.211 174.684 28.3268 174.607 28.4941 174.607 28.7001 174.607 28.9446 174.736 29.1376 175.006 29.2535 175.263 29.3822 175.675 29.498 176.229 29.6267 176.872 29.794 177.387 29.9484 177.786 30.1157 178.185 30.2831 178.545 30.5276 178.841 30.8879 179.15 31.2483 179.305 31.7245 179.317 32.3165 179.317 32.8184 179.176 33.2689 178.893 33.6679 178.61 34.0668 178.198 34.3757 177.67 34.6074 177.142 34.839 176.525 34.942 175.83 34.942 175.083 34.942 174.414 34.8133 173.822 34.5559Z" fill="#29327E" transform="matrix(1 0 0 1.01408 49.6509 386)"/><path d="M180.913 28.1724C181.248 27.5031 181.698 26.9883 182.278 26.628 182.857 26.2676 183.5 26.0874 184.208 26.0874 184.813 26.0874 185.353 26.2161 185.804 26.4607 186.254 26.7052 186.615 27.027 186.859 27.4388L186.859 26.2161 189.498 26.2161 189.498 34.839 186.859 34.839 186.859 33.6164C186.602 34.0154 186.241 34.3371 185.791 34.5945 185.341 34.8519 184.8 34.9677 184.195 34.9677 183.5 34.9677 182.857 34.7876 182.278 34.4143 181.698 34.054 181.248 33.5263 180.913 32.8571 180.579 32.1878 180.411 31.4027 180.411 30.5147 180.411 29.6267 180.579 28.8545 180.913 28.1853ZM186.319 28.9575C185.958 28.5714 185.508 28.3912 184.98 28.3912 184.453 28.3912 184.015 28.5842 183.642 28.9575 183.281 29.3307 183.088 29.8455 183.088 30.5147 183.088 31.184 183.268 31.6988 183.642 32.0849 184.002 32.471 184.453 32.664 184.98 32.664 185.508 32.664 185.945 32.471 186.319 32.0977 186.679 31.7116 186.872 31.1968 186.872 30.5405 186.872 29.8841 186.692 29.3564 186.319 28.9832Z" fill="#29327E" transform="matrix(1 0 0 1.01408 49.6509 386)"/></g></svg>