<?xml version="1.0" encoding="UTF-8"?>
<svg id="Calque_1" data-name="Calque 1" xmlns="http://www.w3.org/2000/svg" xmlns:xlink="http://www.w3.org/1999/xlink" viewBox="0 0 512 512">
  <defs>
    <style>
      .cls-1 {
        opacity: .9;
      }

      .cls-1, .cls-2, .cls-3, .cls-4, .cls-5, .cls-6, .cls-7, .cls-8, .cls-9, .cls-10, .cls-11, .cls-12 {
        stroke-width: 0px;
      }

      .cls-1, .cls-8, .cls-13 {
        fill: #fff;
      }

      .cls-2 {
        fill: #ffbd00;
      }

      .cls-3 {
        fill: #ffe092;
      }

      .cls-4, .cls-14, .cls-15, .cls-16, .cls-17 {
        fill: none;
      }

      .cls-18 {
        filter: url(#drop-shadow-1);
      }

      .cls-5 {
        fill: #6ca1ff;
      }

      .cls-6 {
        fill: url(#Dégradé_sans_nom_24);
      }

      .cls-7 {
        fill: #f5f7ff;
      }

      .cls-9 {
        fill: #92afff;
      }

      .cls-14 {
        stroke: #92afff;
      }

      .cls-14, .cls-13, .cls-15, .cls-16, .cls-17 {
        stroke-width: 1.08px;
      }

      .cls-14, .cls-15, .cls-16 {
        stroke-miterlimit: 10;
      }

      .cls-13, .cls-16, .cls-17 {
        stroke: #0038ff;
        stroke-linecap: round;
      }

      .cls-13, .cls-17 {
        stroke-linejoin: round;
      }

      .cls-10 {
        fill: #d3dfff;
      }

      .cls-11 {
        fill: #80a7ff;
      }

      .cls-19 {
        clip-path: url(#clippath);
      }

      .cls-15 {
        stroke: #130e37;
      }

      .cls-12 {
        fill: #130e37;
      }
    </style>
    <clipPath id="clippath">
      <path class="cls-4" d="m18.96,185.15l76.56,166.34c3.68,7.99,12.72,11.99,21.1,9.36l229.89-72.33c7.49-2.36,11.21-10.76,7.91-17.9l-76.23-164.83c-3.73-8.06-12.83-12.12-21.32-9.5L27.01,167.15c-7.57,2.33-11.36,10.8-8.05,18Z"/>
    </clipPath>
    <filter id="drop-shadow-1" filterUnits="userSpaceOnUse">
      <feOffset dx="-2.69" dy="6.45"/>
      <feGaussianBlur result="blur" stdDeviation="0"/>
      <feFlood flood-color="#ffe092" flood-opacity="1"/>
      <feComposite in2="blur" operator="in"/>
      <feComposite in="SourceGraphic"/>
    </filter>
    <linearGradient id="Dégradé_sans_nom_24" data-name="Dégradé sans nom 24" x1="-7652.08" y1="-5676.57" x2="-7637.37" y2="-5698.17" gradientTransform="translate(3153.26 -8781.71) rotate(-107.95)" gradientUnits="userSpaceOnUse">
      <stop offset=".18" stop-color="#ae0707"/>
      <stop offset=".34" stop-color="#b66a70"/>
      <stop offset=".51" stop-color="#bcb8c1"/>
      <stop offset=".68" stop-color="#3968aa"/>
      <stop offset=".81" stop-color="#061c65"/>
    </linearGradient>
  </defs>
  <circle class="cls-10" cx="264.56" cy="321.71" r="160.77"/>
  <circle class="cls-15" cx="299.09" cy="243.84" r="114.97"/>
  <circle class="cls-7" cx="75.14" cy="83.5" r="34.47"/>
  <circle class="cls-10" cx="88.14" cy="76.84" r="34.47"/>
  <g>
    <g>
      <path class="cls-8" d="m368,274.03l-82.4-178.17c-4.03-8.71-13.87-13.1-23.04-10.27L14.08,162.18c-3.1.96-5.62,2.87-7.35,5.3l-3.66,4.35h0c-3.14,4.02-4.04,9.63-1.72,14.66l82.76,179.81c3.97,8.63,13.74,12.96,22.81,10.11l248.5-78.18c2.65-.83,4.85-2.37,6.51-4.32l3.69-4.45h0c3.68-4.03,4.88-10.06,2.4-15.43Z"/>
      <g class="cls-19">
        <g>
          <g>
            <g>
              <polygon class="cls-5" points="138 311.74 108.58 321.03 82.86 264.71 112.3 255.45 138 311.74"/>
              <path class="cls-11" d="m141.71,329.65l-21.61,6.83c-2.15.68-4.89-.94-6.12-3.63h0c-1.23-2.68-.47-5.41,1.68-6.09l21.62-6.82c2.15-.68,4.89.94,6.11,3.63h0c1.22,2.68.47,5.41-1.68,6.09Z"/>
            </g>
            <g>
              <polygon class="cls-5" points="185.81 296.66 156.44 305.93 130.76 249.65 160.15 240.41 185.81 296.66"/>
              <path class="cls-11" d="m189.52,314.55l-21.58,6.82c-2.15.68-4.88-.94-6.11-3.63h0c-1.22-2.68-.47-5.4,1.68-6.08l21.58-6.81c2.15-.68,4.88.95,6.1,3.63h0c1.22,2.68.47,5.4-1.68,6.08Z"/>
            </g>
            <g>
              <polygon class="cls-5" points="233.62 281.57 204.3 290.83 178.66 234.59 208.01 225.36 233.62 281.57"/>
              <path class="cls-11" d="m237.32,299.45l-21.55,6.81c-2.15.68-4.88-.94-6.1-3.62h0c-1.22-2.68-.47-5.4,1.67-6.08l21.55-6.8c2.14-.68,4.87.95,6.09,3.62h0c1.22,2.68.47,5.4-1.67,6.08Z"/>
            </g>
            <g>
              <polygon class="cls-5" points="281.43 266.49 252.15 275.73 226.55 219.52 255.86 210.31 281.43 266.49"/>
              <path class="cls-11" d="m285.13,284.35l-21.51,6.8c-2.14.68-4.87-.95-6.09-3.62h0c-1.22-2.68-.47-5.4,1.67-6.07l21.52-6.79c2.14-.68,4.87.95,6.08,3.62h0c1.22,2.68.47,5.39-1.67,6.07Z"/>
            </g>
            <g>
              <polygon class="cls-5" points="329.24 251.4 300.01 260.62 274.45 204.46 303.71 195.26 329.24 251.4"/>
              <path class="cls-11" d="m332.94,269.26l-21.48,6.78c-2.14.68-4.86-.95-6.08-3.62h0c-1.22-2.68-.47-5.39,1.67-6.07l21.49-6.78c2.14-.67,4.86.95,6.07,3.62h0c1.22,2.67.47,5.39-1.67,6.07Z"/>
            </g>
          </g>
          <polygon class="cls-12" points="148.74 228.27 76.58 250.95 61.57 218.09 133.76 195.44 148.74 228.27"/>
          <polygon class="cls-11" points="227.3 203.58 155.31 226.2 140.34 193.38 212.36 170.79 227.3 203.58"/>
          <path class="cls-5" d="m263.98,120.42l-31.76,9.95c-2.15.67-4.88-.96-6.1-3.64h0c-1.22-2.68-.47-5.4,1.68-6.08l31.77-9.94c2.15-.67,4.87.96,6.09,3.64h0c1.22,2.68.47,5.4-1.67,6.07Z"/>
        </g>
      </g>
      <path class="cls-9" d="m4.45,170.19c-3.27,4.23-5.85,9.48-3.6,15.04s83.15,180.82,83.15,180.82c0,0,4.97,10.88,13.78,10.7s7.96-4.33,7.96-4.33c0,0-10.26.1-14.91-6.73s-11.61-24.01-11.61-24.01L5.25,181.34s-2.07-5.36-.81-11.14Z"/>
      <path class="cls-17" d="m368,274.03l-82.4-178.17c-4.03-8.71-13.87-13.1-23.04-10.27L14.08,162.18c-3.1.96-5.62,2.87-7.35,5.3l-3.66,4.35h0c-3.14,4.02-4.04,9.63-1.72,14.66l82.76,179.81c3.97,8.63,13.74,12.96,22.81,10.11l248.5-78.18c2.65-.83,4.85-2.37,6.51-4.32l3.69-4.45h0c3.68-4.03,4.88-10.06,2.4-15.43Z"/>
      <path class="cls-17" d="m84.57,353.68l3.57,7.76c3.97,8.63,13.74,12.96,22.81,10.11l248.5-78.18c8.1-2.55,12.12-11.64,8.56-19.34l-82.4-178.17c-4.03-8.71-13.87-13.1-23.04-10.27L14.08,162.18c-8.19,2.52-12.28,11.68-8.7,19.46l8.07,17.54,71.11,154.51Z"/>
      <path class="cls-17" d="m18.96,185.15l76.56,166.34c3.68,7.99,12.72,11.99,21.1,9.36l229.89-72.33c7.49-2.36,11.21-10.76,7.91-17.9l-76.23-164.83c-3.73-8.06-12.83-12.12-21.32-9.5L27.01,167.15c-7.57,2.33-11.36,10.8-8.05,18Z"/>
    </g>
    <g>
      <path class="cls-8" d="m97.78,386.01c.06,1.55.94,3.08,2.68,3.75l117.13,45.54c11.77,4.58,24.75,4.99,36.79,1.17l255.02-80.9c1.62-.51,2.47-1.91,2.51-3.32h0v-7.57c0-1.37-.77-2.75-2.31-3.34l-121.81-46.86c-9.4-3.62-19.76-3.95-29.37-.93l-257.7,80.83c-1.95.61-2.95,2.32-2.95,4.02v7.59Z"/>
      <path class="cls-9" d="m97.78,379.03v6.73s-.26,3.15,4.81,4.83c5.07,1.69,113.01,43.94,113.01,43.94,0,0,9.72,4.57,20.63,4.53,10.91-.03,19.02-2.48,27.46-5.35,8.45-2.88,245.24-77.99,245.24-77.99,0,0,2.75.35,2.96-4.7s0-5.47,0-5.47c0,0,.49,1.41-4.08,3.03s-246.22,78.15-246.22,78.15c0,0-14.28,5.13-25.46,4.86s-24.61-5.71-29.52-8.01c-4.91-2.29-105.41-40.98-105.41-40.98,0,0-2.5-.7-3.43-3.59Z"/>
      <path class="cls-17" d="m97.78,386.01c.06,1.55.94,3.08,2.68,3.75l117.13,45.54c11.77,4.58,24.75,4.99,36.79,1.17l255.02-80.9c1.62-.51,2.47-1.91,2.51-3.32h0v-7.57c0-1.37-.77-2.75-2.31-3.34l-121.81-46.86c-9.4-3.62-19.76-3.95-29.37-.93l-257.7,80.83c-1.95.61-2.95,2.32-2.95,4.02v7.59Z"/>
      <path class="cls-17" d="m157.1,404.34l60.49,23.52c11.77,4.58,24.75,4.99,36.79,1.17l61.51-19.51,122.48-38.85,71.04-22.53c3.24-1.03,3.38-5.57.2-6.79l-121.81-46.86c-9.4-3.62-19.76-3.95-29.37-.93l-257.7,80.83c-3.79,1.19-3.97,6.49-.27,7.93l35.23,13.7,21.41,8.33Z"/>
      <g>
        <ellipse class="cls-17" cx="155.46" cy="373.71" rx="3.01" ry="7.46" transform="translate(-227.59 504.49) rotate(-86.26)"/>
        <ellipse class="cls-17" cx="189.04" cy="363.06" rx="3.01" ry="7.46" transform="translate(-185.57 528.03) rotate(-86.26)"/>
        <ellipse class="cls-17" cx="205.82" cy="357.73" rx="3.01" ry="7.46" transform="translate(-164.56 539.8) rotate(-86.26)"/>
        <ellipse class="cls-17" cx="222.61" cy="352.4" rx="3.01" ry="7.46" transform="translate(-143.55 551.57) rotate(-86.26)"/>
        <ellipse class="cls-17" cx="239.39" cy="347.07" rx="3.01" ry="7.46" transform="translate(-122.54 563.34) rotate(-86.26)"/>
        <ellipse class="cls-17" cx="256.18" cy="341.74" rx="3.01" ry="7.46" transform="translate(-101.53 575.1) rotate(-86.26)"/>
        <ellipse class="cls-17" cx="272.97" cy="336.41" rx="3.01" ry="7.46" transform="translate(-80.52 586.87) rotate(-86.26)"/>
        <ellipse class="cls-17" cx="289.75" cy="331.09" rx="3.01" ry="7.46" transform="translate(-59.51 598.64) rotate(-86.26)"/>
        <ellipse class="cls-17" cx="306.54" cy="325.76" rx="3.01" ry="7.46" transform="translate(-38.51 610.41) rotate(-86.26)"/>
        <ellipse class="cls-17" cx="323.32" cy="320.43" rx="3.01" ry="7.46" transform="translate(-17.5 622.18) rotate(-86.26)"/>
        <ellipse class="cls-17" cx="340.11" cy="315.1" rx="3.01" ry="7.46" transform="translate(3.51 633.95) rotate(-86.26)"/>
        <ellipse class="cls-17" cx="356.9" cy="309.77" rx="3.01" ry="7.46" transform="translate(24.52 645.72) rotate(-86.26)"/>
      </g>
      <g>
        <ellipse class="cls-17" cx="171.29" cy="380.32" rx="3.01" ry="7.46" transform="translate(-219.39 526.46) rotate(-86.26)"/>
        <ellipse class="cls-17" cx="188.08" cy="375" rx="3.01" ry="7.46" transform="translate(-198.38 538.23) rotate(-86.26)"/>
        <ellipse class="cls-17" cx="204.86" cy="369.67" rx="3.01" ry="7.46" transform="translate(-177.37 550) rotate(-86.26)"/>
        <ellipse class="cls-17" cx="221.65" cy="364.34" rx="3.01" ry="7.46" transform="translate(-156.36 561.77) rotate(-86.26)"/>
        <ellipse class="cls-17" cx="238.44" cy="359.01" rx="3.01" ry="7.46" transform="translate(-135.35 573.54) rotate(-86.26)"/>
        <ellipse class="cls-17" cx="255.22" cy="353.68" rx="3.01" ry="7.46" transform="translate(-114.34 585.31) rotate(-86.26)"/>
        <ellipse class="cls-17" cx="272.01" cy="348.35" rx="3.01" ry="7.46" transform="translate(-93.33 597.08) rotate(-86.26)"/>
        <ellipse class="cls-17" cx="288.79" cy="343.03" rx="3.01" ry="7.46" transform="translate(-72.33 608.85) rotate(-86.26)"/>
        <ellipse class="cls-17" cx="305.58" cy="337.7" rx="3.01" ry="7.46" transform="translate(-51.32 620.62) rotate(-86.26)"/>
        <ellipse class="cls-17" cx="322.37" cy="332.37" rx="3.01" ry="7.46" transform="translate(-30.31 632.39) rotate(-86.26)"/>
        <ellipse class="cls-17" cx="339.15" cy="327.04" rx="3.01" ry="7.46" transform="translate(-9.3 644.16) rotate(-86.26)"/>
        <ellipse class="cls-17" cx="355.94" cy="321.71" rx="3.01" ry="7.46" transform="translate(11.71 655.93) rotate(-86.26)"/>
      </g>
      <g>
        <ellipse class="cls-17" cx="187.12" cy="386.94" rx="3.01" ry="7.46" transform="translate(-211.19 548.44) rotate(-86.26)"/>
        <ellipse class="cls-17" cx="203.9" cy="381.61" rx="3.01" ry="7.46" transform="translate(-190.18 560.21) rotate(-86.26)"/>
        <ellipse class="cls-17" cx="220.69" cy="376.28" rx="3.01" ry="7.46" transform="translate(-169.17 571.98) rotate(-86.26)"/>
        <ellipse class="cls-17" cx="237.48" cy="370.95" rx="3.01" ry="7.46" transform="translate(-148.16 583.75) rotate(-86.26)"/>
        <ellipse class="cls-17" cx="254.26" cy="365.62" rx="3.01" ry="7.46" transform="translate(-127.16 595.51) rotate(-86.26)"/>
        <ellipse class="cls-17" cx="271.05" cy="360.29" rx="3.01" ry="7.46" transform="translate(-106.15 607.28) rotate(-86.26)"/>
        <ellipse class="cls-17" cx="287.83" cy="354.97" rx="3.01" ry="7.46" transform="translate(-85.14 619.05) rotate(-86.26)"/>
        <ellipse class="cls-17" cx="304.62" cy="349.64" rx="3.01" ry="7.46" transform="translate(-64.13 630.82) rotate(-86.26)"/>
        <ellipse class="cls-17" cx="321.41" cy="344.31" rx="3.01" ry="7.46" transform="translate(-43.12 642.59) rotate(-86.26)"/>
        <ellipse class="cls-17" cx="338.19" cy="338.98" rx="3.01" ry="7.46" transform="translate(-22.11 654.36) rotate(-86.26)"/>
        <ellipse class="cls-17" cx="371.76" cy="328.33" rx="3.01" ry="7.46" transform="translate(19.91 677.9) rotate(-86.26)"/>
      </g>
      <g>
        <ellipse class="cls-17" cx="202.94" cy="393.55" rx="3.01" ry="7.46" transform="translate(-202.99 570.41) rotate(-86.26)"/>
        <ellipse class="cls-17" cx="219.73" cy="388.22" rx="3.01" ry="7.46" transform="translate(-181.98 582.18) rotate(-86.26)"/>
        <ellipse class="cls-17" cx="236.52" cy="382.89" rx="3.01" ry="7.46" transform="translate(-160.98 593.95) rotate(-86.26)"/>
        <ellipse class="cls-17" cx="370.81" cy="340.27" rx="3.01" ry="7.46" transform="translate(7.1 688.11) rotate(-86.26)"/>
        <ellipse class="cls-17" cx="387.59" cy="334.94" rx="3.01" ry="7.46" transform="translate(28.11 699.87) rotate(-86.26)"/>
        <ellipse class="cls-17" cx="404.38" cy="329.61" rx="3.01" ry="7.46" transform="translate(49.11 711.64) rotate(-86.26)"/>
        <path class="cls-17" d="m344.68,351.41c.11-1.66-3.14-3.22-7.25-3.49-1.98-.13-3.79.07-5.15.49h0s-67.3,21.36-67.3,21.36c0,0,0,0,0,0h0s0,0,0,0c-1.38.46-2.26,1.15-2.32,1.98-.11,1.66,3.14,3.22,7.25,3.49,1.93.13,3.71-.06,5.06-.46h0s.16-.05.16-.05c.05-.01.09-.03.14-.04l67.06-21.29s.04-.01.06-.02h.04s0-.01,0-.01c1.35-.46,2.21-1.14,2.26-1.96Z"/>
      </g>
      <path class="cls-17" d="m393.82,321.16h0s-.13-.06-.13-.06c-.13-.06-.26-.11-.4-.17l-15.04-6.28h-.02c-1.32-.65-3.2-1.13-5.31-1.27-4.11-.27-7.53.86-7.64,2.52-.06.95.97,1.86,2.63,2.52h0s15.44,6.45,15.44,6.45h0c1.3.58,3.05,1,5,1.13,4.11.27,7.53-.86,7.64-2.52.06-.86-.79-1.68-2.18-2.33Z"/>
      <g>
        <path class="cls-17" d="m289.66,378.24l58.59-18.11c2.82-.89,5.86-.79,8.62.27l35.75,13.75c.93.36.89,1.69-.06,1.99l-57.8,18.12c-3.53,1.12-7.34,1-10.8-.34l-34.38-13.37c-1.09-.42-1.03-1.98.08-2.33Z"/>
        <line class="cls-17" x1="333.39" y1="373.3" x2="353.88" y2="381.27"/>
      </g>
    </g>
  </g>
  <g id="c1" class="cls-18">
    <path class="cls-8" d="m40.41,246.53l-34.02,10.42c-1.9.58-2.81,2.48-2.02,4.23l11.33,25.16,12.96,28.76c.79,1.75,2.96,2.69,4.86,2.11l101.99-31.31c1.89-.58,2.8-2.47,2.02-4.21l-23.99-53.94c-.78-1.75-2.95-2.71-4.85-2.13l-68.28,20.91Z"/>
    <path class="cls-17" d="m16.76,288.7l11.89,26.41c.79,1.75,2.96,2.69,4.86,2.11l101.99-31.31c1.89-.58,2.8-2.47,2.02-4.21l-23.99-53.94c-.78-1.75-2.95-2.71-4.85-2.13l-52.26,16-10.74,3.29-39.29,12.03c-1.9.58-2.81,2.48-2.02,4.23l9.83,21.82,2.56,5.69Z"/>
    <g>
      <path class="cls-12" d="m32.33,294.91l-.58.18-1.54-3.42c-.08.17-.21.35-.39.54-.17.19-.33.35-.49.47l-.23-.52c.26-.24.47-.5.62-.77.15-.28.24-.52.25-.74l.38-.12,1.97,4.39Z"/>
      <path class="cls-12" d="m36.64,293l.23.52-3.13.96c-.06-.13-.1-.26-.1-.39,0-.22.03-.45.12-.7.09-.24.24-.54.46-.89.34-.55.55-.96.63-1.25.08-.28.07-.53-.02-.73-.1-.21-.26-.37-.49-.46s-.48-.1-.74-.02c-.28.09-.47.23-.57.44s-.09.45.03.72l-.62.13c-.14-.42-.13-.78.04-1.08.17-.3.48-.52.93-.65.46-.14.87-.13,1.24.02s.63.4.79.74c.08.17.12.36.12.55,0,.19-.05.41-.15.65-.1.24-.28.59-.55,1.04-.23.38-.37.63-.43.76-.06.13-.09.25-.12.37l2.33-.71Z"/>
      <path class="cls-12" d="m36.98,292.17l.55-.25c.2.28.42.47.64.55.22.08.45.09.68.02.27-.08.47-.24.58-.47.11-.23.11-.48,0-.74s-.29-.42-.54-.53c-.25-.11-.5-.12-.77-.04-.11.03-.24.1-.38.19l-.15-.49s.07-.02.1-.02c.25-.08.44-.2.59-.38.14-.18.16-.39.05-.64-.09-.2-.23-.34-.44-.42-.2-.08-.42-.09-.65-.02s-.39.19-.48.37c-.09.18-.1.4-.03.68l-.63.08c-.09-.38-.05-.71.11-.98.16-.27.43-.47.81-.59.26-.08.52-.1.78-.07.26.04.49.12.69.27.19.14.34.31.43.51s.11.38.07.57-.15.36-.32.52c.31-.03.58.03.82.17s.42.35.55.63c.17.38.17.75-.02,1.11-.18.36-.5.61-.97.75-.42.13-.81.12-1.19-.02-.38-.14-.67-.39-.87-.74Z"/>
      <path class="cls-12" d="m43.05,291.62l-.47-1.05-2.06.63-.22-.49.89-3.49.48-.15,1.27,2.83.64-.2.22.49-.64.2.47,1.05-.58.18Zm-.69-1.54l-.88-1.97-.6,2.42,1.48-.46Z"/>
      <path class="cls-12" d="m48.56,288.63l.59-.24c.17.26.37.43.59.52.23.09.46.1.69.02.28-.09.47-.26.58-.51.11-.25.09-.54-.06-.86s-.34-.52-.6-.64c-.27-.12-.55-.13-.85-.04-.19.06-.34.15-.45.27-.12.12-.19.26-.22.41l-.58.1-.55-2.38,2.36-.72.23.51-1.89.58.27,1.25c.2-.27.46-.45.77-.55.41-.13.82-.1,1.23.07.4.18.7.47.88.89s.21.78.08,1.14c-.15.45-.48.75-1.01.91-.43.13-.83.13-1.21,0-.37-.14-.66-.39-.86-.74Z"/>
      <path class="cls-12" d="m54.29,284.42l-.56.22c-.15-.19-.29-.33-.43-.39-.23-.1-.45-.12-.68-.05-.19.06-.33.15-.42.29-.13.18-.19.4-.19.67,0,.27.1.62.29,1.06.05-.24.16-.44.32-.6.16-.16.35-.27.57-.34.39-.12.78-.09,1.17.09.39.18.68.48.87.89.12.27.17.55.15.82-.02.27-.12.51-.29.7-.17.19-.39.33-.68.42-.48.15-.95.11-1.41-.13-.45-.23-.85-.73-1.19-1.48-.38-.84-.49-1.51-.32-2,.15-.42.47-.71.97-.87.37-.11.72-.11,1.05,0,.32.12.59.34.79.67Zm-1.53,2.61c.08.18.2.35.37.49.16.14.34.23.53.28.19.04.37.04.54-.02.25-.08.42-.23.51-.47.09-.24.07-.51-.07-.83s-.33-.51-.58-.63c-.25-.12-.51-.14-.78-.06s-.45.24-.55.47c-.11.23-.09.49.03.77Z"/>
      <path class="cls-12" d="m54.77,283.71l-.23-.52,3.07-.94.19.42c-.17.39-.29.87-.37,1.46-.08.58-.08,1.16,0,1.72.05.4.15.82.32,1.27l-.6.18c-.15-.35-.26-.78-.34-1.31-.08-.53-.09-1.06-.03-1.59.06-.53.17-1,.32-1.4l-2.32.71Z"/>
      <path class="cls-12" d="m59.95,283.74c-.28,0-.51-.07-.69-.18-.18-.12-.32-.28-.42-.49-.14-.32-.14-.62.01-.92.15-.29.43-.5.84-.63s.8-.12,1.15.03c.35.14.6.38.74.69.09.2.11.4.06.58-.05.19-.17.35-.37.51.33,0,.61.07.85.22.24.15.42.36.54.63.17.37.16.73,0,1.07-.17.34-.49.58-.96.73-.47.14-.9.13-1.3-.04-.4-.17-.69-.44-.86-.82-.13-.28-.16-.55-.09-.79.07-.24.23-.44.49-.6Zm.19,1.2c.07.15.17.29.32.41.14.12.31.19.5.22.19.03.37.02.55-.04.28-.09.47-.24.58-.46.11-.22.1-.46-.01-.71s-.3-.44-.57-.55c-.26-.11-.53-.12-.81-.04s-.46.24-.57.46c-.11.22-.1.46.01.71Zm-.72-2.07c.09.21.24.35.44.44.2.09.42.09.65.02s.38-.19.46-.36c.08-.17.09-.36,0-.54s-.24-.34-.44-.43c-.21-.09-.42-.1-.64-.03s-.38.19-.46.37c-.09.18-.09.36,0,.54Z"/>
      <path class="cls-12" d="m67.64,282.93l.54-.22c.16.23.33.38.51.44.18.07.38.07.59,0,.18-.05.32-.14.42-.26.1-.12.17-.25.2-.4.03-.15.03-.34-.01-.58s-.11-.46-.21-.68c-.01-.02-.03-.06-.05-.11-.04.21-.14.39-.29.56-.15.17-.35.29-.58.36-.39.12-.78.09-1.17-.09-.39-.18-.68-.48-.87-.91s-.22-.84-.05-1.2c.16-.36.46-.6.88-.73.31-.09.62-.1.95-.03.32.07.62.23.87.48s.51.63.75,1.17.38,1.02.4,1.39c.02.37-.07.68-.25.94-.18.25-.45.43-.8.54-.37.11-.72.11-1.04,0-.32-.12-.58-.34-.78-.67Zm1.52-2.66c-.14-.31-.34-.52-.59-.65-.26-.13-.51-.15-.76-.07s-.44.25-.54.5c-.1.25-.09.54.05.85.12.28.32.48.58.59.26.12.52.14.79.05s.45-.24.55-.46c.1-.23.07-.49-.06-.8Z"/>
      <path class="cls-12" d="m73.87,282.17l-.58.18-1.53-3.42c-.08.17-.21.35-.39.54-.17.19-.33.35-.49.46l-.23-.52c.26-.24.47-.5.62-.77.15-.28.24-.52.26-.74l.37-.11,1.96,4.39Z"/>
      <path class="cls-12" d="m74.4,279.56c-.23-.52-.36-.95-.39-1.3-.03-.35.04-.65.19-.89.15-.24.4-.41.74-.52.25-.08.5-.1.73-.06.23.04.45.12.66.26.2.14.4.33.58.56.19.23.37.57.57,1,.23.51.36.94.38,1.29.03.35-.04.65-.19.89-.15.24-.4.42-.75.52-.46.14-.88.1-1.28-.12-.48-.27-.9-.81-1.26-1.63Zm.6-.18c.32.72.63,1.17.91,1.35.29.18.57.23.83.15s.44-.27.51-.56c.08-.29-.05-.8-.37-1.51s-.63-1.17-.91-1.35c-.29-.18-.57-.23-.84-.15s-.43.25-.5.51c-.08.33.04.85.36,1.57Z"/>
      <path class="cls-12" d="m81.23,279.91l-.58.18-1.53-3.42c-.08.17-.21.35-.39.54-.17.19-.33.35-.49.46l-.23-.52c.26-.24.47-.5.62-.77.15-.28.24-.52.26-.74l.37-.11,1.96,4.39Z"/>
      <path class="cls-12" d="m89.11,277.49l-.58.18-1.53-3.42c-.08.17-.21.35-.39.54-.17.19-.33.35-.49.46l-.23-.52c.26-.24.47-.5.62-.77.15-.28.24-.52.26-.74l.37-.11,1.96,4.39Z"/>
      <path class="cls-12" d="m92.3,276.51l-.58.18-1.53-3.42c-.08.17-.21.35-.39.54-.17.19-.33.35-.49.46l-.23-.52c.26-.24.47-.5.62-.77.15-.28.24-.52.26-.74l.37-.11,1.96,4.39Z"/>
      <path class="cls-12" d="m96.61,274.6l.23.52-3.13.96c-.06-.13-.09-.26-.1-.39,0-.22.03-.45.12-.7.09-.24.25-.54.47-.89.34-.55.55-.96.63-1.25.08-.28.07-.53-.02-.73-.09-.21-.26-.37-.49-.46s-.48-.1-.74-.02c-.28.09-.47.23-.57.44s-.09.45.03.72l-.62.13c-.14-.42-.13-.78.04-1.08.17-.3.48-.52.93-.65.45-.14.87-.13,1.23.02s.63.4.78.74c.08.17.12.36.11.55,0,.19-.05.41-.15.65-.1.24-.28.59-.55,1.04-.23.38-.37.63-.43.76-.06.13-.09.25-.12.37l2.32-.71Z"/>
      <path class="cls-12" d="m99.66,274.26l-.58.18-1.53-3.42c-.08.17-.21.35-.39.54-.17.19-.33.35-.49.46l-.23-.52c.26-.24.47-.5.62-.77.15-.28.24-.52.26-.74l.37-.11,1.96,4.39Z"/>
    </g>
    <line class="cls-16" x1="47.52" y1="299.17" x2="54.83" y2="296.92"/>
    <line class="cls-16" x1="34.98" y1="303.02" x2="43.36" y2="300.44"/>
    <line class="cls-16" x1="96.69" y1="284.08" x2="124.1" y2="275.67"/>
    <line class="cls-16" x1="36.93" y1="307.36" x2="54.12" y2="302.09"/>
    <g>
      <path class="cls-3" d="m36.22,269.02l-10.66,3.27c-1.85.57-3.98-.36-4.74-2.06l-1.9-4.23c-.77-1.71.11-3.55,1.96-4.12l10.67-3.27c1.85-.57,3.98.36,4.74,2.07l1.9,4.23c.77,1.71-.11,3.55-1.96,4.12Z"/>
      <g>
        <line class="cls-14" x1="23.37" y1="261.11" x2="28.05" y2="271.53"/>
        <polyline class="cls-14" points="36.29 260.68 30.73 262.39 34.02 269.7"/>
        <line class="cls-14" x1="25.77" y1="266.13" x2="19.92" y2="267.93"/>
      </g>
    </g>
    <g id="Page-1">
      <g>
        <polygon class="cls-6" points="112.2 246.81 106.22 234.19 85.58 240.08 91.48 253.26 112.2 246.81"/>
        <path class="cls-8" d="m94.59,240.8l.45-.04c.35-.02.7,0,1.07.06l.54.12c.24.07.47.16.69.26.36.18.69.4.98.66.34.31.62.65.84,1.03l.08.13s0,0,0,0c0,.01,0,.03-.01.03l-.22.07-.57.17-2.28.68-1.16.34s0,0,0,.01l.3.65s.01.01.02,0l.75-.23,1.05-.32,1.45-.43.47-.14.5-.15h0s.02,0,.03.01c0,0,0,0,0,0,.12.32.2.64.23.96.07.68-.07,1.31-.43,1.88-.11.15-.21.3-.33.43-.11.12-.24.24-.37.35-.2.15-.41.3-.63.43-.23.12-.47.23-.72.33-.3.11-.6.21-.92.28-.29.07-.59.12-.88.14l-.61.02-.43-.03c-.25-.03-.5-.07-.73-.14-.09-.02-.2-.06-.33-.1-.25-.09-.5-.21-.73-.34-.58-.35-1.04-.79-1.39-1.32-.07-.1-.13-.2-.19-.29-.05-.1-.1-.19-.14-.27-.65-1.29-.66-2.7.32-3.78.21-.23.46-.44.74-.62.39-.25.82-.45,1.28-.6.08-.02.16-.06.24-.08.37-.1.65-.16,1.03-.21Z"/>
        <path class="cls-8" d="m98.87,239.69l.48-.14,1.15-.34.26-.08.71-.21.84-.24.45-.13.61-.18c.27-.08.51-.14.72-.16.04,0,.11,0,.23-.02.22,0,.44.04.65.12.46.17.8.45,1.03.85.04.07.09.17.14.3.01.04.02.09.04.13.11.46.03.86-.26,1.21-.1.12-.23.22-.39.31-.21.1-.4.18-.56.23-.45.13-.9.27-1.36.4l-1.12.33-.66.2-1.34.4-.53.15s-.02,0-.02,0l-1.1-2.37-.27-.58-.03-.07h0s0-.01,0-.02h0s.33-.1.33-.1Z"/>
        <path class="cls-8" d="m100.6,243.4l1.28-.38.66-.2,1.29-.39c.54-.16,1.08-.32,1.61-.48.06-.02.15-.04.28-.05.57-.1,1.16.08,1.6.46.24.22.41.46.51.74.2.56.11,1.05-.28,1.48-.27.25-.62.38-1,.5-.21.06-.41.13-.62.19l-.82.25-.63.19-1.37.42-.17.05-1.04.32-.23.07s-.03,0-.03,0c-.31-.66-.61-1.32-.92-1.99l-.48-1.04s0-.03.02-.04l.32-.1Z"/>
      </g>
    </g>
  </g>
  <g>
    <path class="cls-8" d="m450.94,91.09l6.92,5.79-15.98,30.53c-15.35,30.45-44.33,48.25-73.67,48.87l-11.42-1.7.91-28.13,57.56-61.28,35.69,5.92Z"/>
    <path class="cls-9" d="m356.78,174.58l11.93,1.7s18.83.51,38.94-11.61c20.11-12.11,32.11-31.03,38.59-45.61,6.48-14.58,11.61-22.19,11.61-22.19l-6.92-5.79s-14.73,28.04-16.9,32.13-14.06,25.63-35.62,38.96c-21.51,13.3-41.95,12.4-41.95,12.4"/>
    <path class="cls-9" d="m387.56,167.84c-17.05,7.36-31.09,6.74-31.09,6.74"/>
    <path class="cls-17" d="m450.94,91.09l6.92,5.79-15.98,30.53c-15.35,30.45-44.33,48.25-73.67,48.87l-11.42-1.7.91-28.13,57.56-61.28,35.69,5.92Z"/>
    <path class="cls-13" d="m416.23,58.95l7.97,6.67s2.95,10.93,9.84,17.88c-10.96-1.55-16.81-2.31-16.81-2.31l-7.47-17.22,6.47-5.02Z"/>
    <path class="cls-13" d="m387.72,167.83c3.53-1.52,7.01-3.37,10.7-5.64,21.56-13.33,33.45-34.87,35.62-38.96.97-1.83,4.45-8.45,8.01-15.22l.04-.02,8.85-16.9-5.9-2.15c-14.95-5.46-23.81-14.88-28.81-29.98h0s0,0,0,0h0c-15.12,4.97-25.85,7.57-39.12-1.2l-5.24-3.46-13.49,26.9c-15.35,30.45-17.28,64.26-1.6,93.39,10.9-.19,21.26-2.56,30.8-6.69"/>
    <path class="cls-2" d="m408.59,106.78l2.91-5.77c4.07-8.07,1.49-17.33-5.87-21.03-7.36-3.71-16.33-.28-20.4,7.79l-2.91,5.77c-4.47-2.25-9.77-.22-12.24,4.68l-10.17,20.18c-2.47,4.9-.94,10.37,3.52,12.62l26.27,13.24c4.47,2.25,9.77.22,12.24-4.68l10.17-20.18c2.47-4.9.94-10.37-3.52-12.62Zm-18.11-16.36c2.47-4.9,7.77-6.93,12.24-4.68,4.47,2.25,5.99,7.72,3.52,12.62l-2.91,5.77-15.76-7.94,2.91-5.77Zm-1.58,29.93l-.41.16-2.03,4.04c-.87,1.73-2.5,2.35-4.08,1.56s-2.05-2.48-1.17-4.21l2.03-4.04c-.7-2.52.34-5.25,2.79-6.19,2.45-.94,4.96-.03,5.66,2.49.85,2.24-.34,5.25-2.79,6.19Z"/>
  </g>
  <g>
    <polygon class="cls-1" points="159.15 69.44 287.26 29.52 313.83 87.49 185.78 127.47 159.15 69.44"/>
    <polygon class="cls-14" points="159.15 69.44 287.26 29.52 313.83 87.49 185.78 127.47 159.15 69.44"/>
    <line class="cls-14" x1="196.82" y1="72.97" x2="278.49" y2="47.51"/>
    <line class="cls-14" x1="186.7" y1="91.22" x2="268.37" y2="65.77"/>
    <line class="cls-14" x1="190.84" y1="104.53" x2="272.52" y2="79.07"/>
  </g>
  <line class="cls-14" x1="460.94" y1="400.51" x2="506.77" y2="384.11"/>
  <line class="cls-14" x1="4.56" y1="368.36" x2="47.87" y2="352.87"/>
</svg>