<svg xmlns="http://www.w3.org/2000/svg" width="18" height="18" viewBox="0 0 18 18">
  <g id="edit-svgrepo-com" transform="translate(-2 -2)">
    <path id="Path_9" data-name="Path 9" d="M12,20.9a.9.9,0,0,1,.9-.9h7.2a.9.9,0,1,1,0,1.8H12.9A.9.9,0,0,1,12,20.9Z" transform="translate(-1 -1.8)" fill="#fff" fill-rule="evenodd"/>
    <path id="Path_10" data-name="Path 10" d="M18.9,7.49A3.206,3.206,0,0,0,19.2,2.956,2.979,2.979,0,0,0,17.073,2a3.85,3.85,0,0,0-2.554.989q-.031.026-.06.055L2.787,14.763A2.7,2.7,0,0,0,2,16.669v1.524A1.806,1.806,0,0,0,3.8,20H5.314a2.7,2.7,0,0,0,1.913-.795Zm-3.21-2.076a.9.9,0,1,0-1.273,1.273l.9.9a.9.9,0,1,0,1.273-1.273Z" fill="#fff" fill-rule="evenodd"/>
  </g>
</svg>
