<svg xmlns="http://www.w3.org/2000/svg" width="28.267" height="28.194" viewBox="0 0 28.267 28.194">
  <g id="winter-svgrepo-com" transform="translate(-1.994 -1.996)">
    <path id="primary" d="M15.272,26.544a1.409,1.409,0,0,1-1.409-1.409v-4.41a5.707,5.707,0,0,1-1.409-.592L9.3,23.247a1.415,1.415,0,1,1-2-2l3.114-3.156a5.706,5.706,0,0,1-.592-1.409H5.409a1.409,1.409,0,0,1,0-2.818h4.41a5.707,5.707,0,0,1,.592-1.409L7.3,9.3a1.415,1.415,0,1,1,2-2l3.156,3.114a5.707,5.707,0,0,1,1.409-.592V5.409a1.409,1.409,0,0,1,2.818,0v4.41a5.707,5.707,0,0,1,1.409.592L21.2,7.3a1.415,1.415,0,0,1,2,2l-3.072,3.156a5.707,5.707,0,0,1,.592,1.409h4.41a1.409,1.409,0,0,1,0,2.818h-4.41a5.707,5.707,0,0,1-.592,1.409L23.247,21.2a1.415,1.415,0,1,1-2,2L18.09,20.133a5.707,5.707,0,0,1-1.409.592v4.41A1.409,1.409,0,0,1,15.272,26.544ZM13.314,17.3a3,3,0,0,0,3.917,0h0a2.818,2.818,0,0,0,0-3.917h0a3,3,0,0,0-3.917,0h0a2.818,2.818,0,0,0,0,3.917Z" transform="translate(0.82 0.82)" fill="#005aab"/>
    <path id="secondary" d="M16.093,7.638a1.409,1.409,0,0,1-1-.409L12.274,4.411a1.415,1.415,0,0,1,2-2l1.818,1.832L17.91,2.41a1.415,1.415,0,0,1,2,2L17.093,7.229A1.409,1.409,0,0,1,16.093,7.638ZM10.527,9.047V5.13a1.409,1.409,0,0,0-2.818,0V7.708H5.13a1.409,1.409,0,1,0,0,2.818H9.118a1.409,1.409,0,0,0,1.409-1.409ZM4.412,19.91,7.23,17.092a1.409,1.409,0,0,0,0-2L4.412,12.273a1.415,1.415,0,0,0-2,2l1.832,1.818L2.411,17.909a1.415,1.415,0,1,0,2,2Zm6.115,7.144V23.137a1.409,1.409,0,0,0-1.409-1.409H5.13a1.409,1.409,0,0,0,0,2.818H7.709v2.579a1.409,1.409,0,0,0,2.818,0Zm9.384,2.719a1.409,1.409,0,0,0,0-2l-2.818-2.818a1.409,1.409,0,0,0-2,0l-2.818,2.818a1.415,1.415,0,1,0,2,2l1.818-1.832,1.818,1.832a1.409,1.409,0,0,0,2,0Zm4.636-2.719V24.546h2.579a1.409,1.409,0,0,0,0-2.818H23.138a1.409,1.409,0,0,0-1.409,1.409v3.988a1.409,1.409,0,0,0,2.818,0Zm5.3-7.144a1.409,1.409,0,0,0,0-2l-1.9-1.818,1.832-1.818a1.415,1.415,0,0,0-2-2l-2.818,2.818a1.409,1.409,0,0,0,0,2l2.818,2.818a1.409,1.409,0,0,0,2,0ZM28.534,9.117a1.409,1.409,0,0,0-1.409-1.409H24.547V5.13a1.409,1.409,0,0,0-2.818,0V9.117a1.409,1.409,0,0,0,1.409,1.409h3.988a1.409,1.409,0,0,0,1.339-1.409Z" transform="translate(0 0)" fill="#2ca9bc"/>
  </g>
</svg>
