<svg width="52" height="52" viewBox="0 0 52 52" fill="none" xmlns="http://www.w3.org/2000/svg">
<path fill-rule="evenodd" clip-rule="evenodd" d="M26 4.875C14.333 4.875 4.875 14.333 4.875 26C4.875 37.667 14.333 47.125 26 47.125C37.667 47.125 47.125 37.667 47.125 26C47.125 14.333 37.667 4.875 26 4.875ZM22.274 19.976C21.6394 19.3413 20.6106 19.3413 19.976 19.976C19.3413 20.6106 19.3413 21.6394 19.976 22.274L23.7019 26L19.976 29.726C19.3413 30.3606 19.3413 31.3894 19.976 32.024C20.6106 32.6587 21.6394 32.6587 22.274 32.024L26 28.2981L29.726 32.024C30.3606 32.6587 31.3894 32.6587 32.024 32.024C32.6587 31.3894 32.6587 30.3606 32.024 29.726L28.2981 26L32.024 22.274C32.6587 21.6394 32.6587 20.6106 32.024 19.976C31.3894 19.3413 30.3606 19.3413 29.726 19.976L26 23.7019L22.274 19.976Z" fill="white"/>
</svg>
